# xmcd CD database file
#
# Track frame offsets:
#	150
#	13315
#	26241
#	40333
#	53223
#	66530
#	80055
#	91173
#	103719
#	117725
#
# Disc length: 1775 seconds
#
# Revision: 0
# Processed by: cddbd v1.5.2PL0 Copyright (c) Steve Scherf et al.
# Submitted via: CDex 1.51
#
DISCID=9106ed0a
DTITLE=Sarah Vaughan - Dreamy
DYEAR=1960
DGENRE=Jazz
TTITLE0=Dreamy
TTITLE1=Hands Across The Table
TTITLE2=The More I See You
TTITLE3=I'll Be Seeing You
TTITLE4=Star Eyes
TTITLE5=Trees
TTITLE6=Why Was I Born
TTITLE7=My Ideal
TTITLE8=Crazy He Calls Me
TTITLE9=Stormy Weather
EXTD=YEAR: 1960
EXTT0=
EXTT1=
EXTT2=
EXTT3=
EXTT4=
EXTT5=
EXTT6=
EXTT7=
EXTT8=
EXTT9=
PLAYORDER=
